HIERARCHY
ROOT root
{
	OFFSET 0.000000 0.000000 0.000000
	CHANNELS 6 Xposition Yposition Zposition Zrotation Yrotation Xrotation
	JOINT lhip
	{
		OFFSET 0.058581 -0.082280 -0.017664
		CHANNELS 3 Zrotation Yrotation Xrotation
		JOINT lknee
		{
			OFFSET 0.043451 -0.386469 0.008037
			CHANNELS 3 Zrotation Yrotation Xrotation
			JOINT lankle
			{
				OFFSET -0.014790 -0.426874 -0.037428
				CHANNELS 3 Zrotation Yrotation Xrotation
				JOINT ltoe
				{
					OFFSET 0.041054 -0.060286 0.122042
					CHANNELS 3 Zrotation Yrotation Xrotation
					End Site
					{
						OFFSET 0.000000 0.000000 0.000000
					}
				}
			}
		}
	}
	JOINT rhip
	{
		OFFSET -0.060310 -0.090513 -0.013543
		CHANNELS 3 Zrotation Yrotation Xrotation
		JOINT rknee
		{
			OFFSET -0.043257 -0.383688 -0.004843
			CHANNELS 3 Zrotation Yrotation Xrotation
			JOINT rankle
			{
				OFFSET 0.019056 -0.420046 -0.034562
				CHANNELS 3 Zrotation Yrotation Xrotation
				JOINT rtoe
				{
					OFFSET -0.034840 -0.062106 0.130323
					CHANNELS 3 Zrotation Yrotation Xrotation
					End Site
					{
						OFFSET 0.000000 0.000000 0.000000
					}
				}
			}
		}
	}
	JOINT lowerback
	{
		OFFSET 0.004439 0.124404 -0.038385
		CHANNELS 3 Zrotation Yrotation Xrotation
		JOINT upperback
		{
			OFFSET 0.004488 0.137956 0.026820
			CHANNELS 3 Zrotation Yrotation Xrotation
			JOINT chest
			{
				OFFSET -0.002265 0.056032 0.002855
				CHANNELS 3 Zrotation Yrotation Xrotation
				JOINT lowerneck
				{
					OFFSET -0.013390 0.211636 -0.033468
					CHANNELS 3 Zrotation Yrotation Xrotation
					JOINT upperneck
					{
						OFFSET 0.010113 0.088937 0.050410
						CHANNELS 3 Zrotation Yrotation Xrotation
						End Site
						{
							OFFSET 0.000000 0.000000 0.000000
						}
					}
				}
				JOINT lclavicle
				{
					OFFSET 0.071702 0.114000 -0.018898
					CHANNELS 3 Zrotation Yrotation Xrotation
					JOINT lshoulder
					{
						OFFSET 0.122921 0.045205 -0.019046
						CHANNELS 3 Zrotation Yrotation Xrotation
						JOINT lelbow
						{
							OFFSET 0.255332 -0.015649 -0.022946
							CHANNELS 3 Zrotation Yrotation Xrotation
							JOINT lwrist
							{
								OFFSET 0.265709 0.012698 -0.007375
								CHANNELS 3 Zrotation Yrotation Xrotation
								End Site
								{
									OFFSET 0.000000 0.000000 0.000000
								}
							}
						}
					}
				}
				JOINT rclavicle
				{
					OFFSET -0.082954 0.112472 -0.023707
					CHANNELS 3 Zrotation Yrotation Xrotation
					JOINT rshoulder
					{
						OFFSET -0.113228 0.046853 -0.008472
						CHANNELS 3 Zrotation Yrotation Xrotation
						JOINT relbow
						{
							OFFSET -0.260127 -0.014369 -0.031269
							CHANNELS 3 Zrotation Yrotation Xrotation
							JOINT rwrist
							{
								OFFSET -0.269108 0.006794 -0.006027
								CHANNELS 3 Zrotation Yrotation Xrotation
								End Site
								{
									OFFSET 0.000000 0.000000 0.000000
								}
							}
						}
					}
				}
			}
		}
	}
}
MOTION
Frames: 14
Frame Time: 0.033333
0.359349 0.321456 0.912709 -76.886790 -4.200908 103.357929 -3.185500 -6.518327 -9.294664 -11.533644 -10.113649 35.950877 5.875010 11.693946 -34.629434 0.000000 -0.000000 0.000000 -6.916614 -0.309695 -44.652071 -1.634379 -14.164157 92.236561 6.296640 -5.357965 -15.201673 0.000000 -0.000000 0.000000 -1.503797 -7.338654 30.529844 2.315822 0.631218 -9.498008 1.395575 -2.707587 1.110474 -1.508108 -1.603063 -30.876031 1.962653 -4.018986 -2.673951 -21.902071 1.248297 -4.368292 -64.745953 -17.895395 23.018952 170.166213 -59.388646 -143.307682 20.144354 -13.001811 -34.009110 21.372353 -6.882900 1.446660 51.762065 -19.339889 15.045828 -14.873562 72.167935 -0.685623 -11.160637 18.021868 -17.369098 
0.181422 0.320215 0.933088 -76.627774 -0.915286 103.572669 2.391090 -3.305146 5.033117 -10.439058 -18.740682 27.346861 -6.477152 8.020928 -15.121056 0.000000 -0.000000 0.000000 -8.512652 1.051145 -54.152575 -3.014783 -18.736934 77.876050 5.145764 -4.213814 -19.184719 0.000000 -0.000000 0.000000 1.941607 -12.317213 27.189412 2.179205 1.422735 -8.546128 2.083291 -3.691393 0.815725 -2.350398 2.296403 -29.112156 1.624203 -2.415744 -2.651488 -19.513525 3.262203 -5.299311 -64.228561 -20.446517 22.924051 172.516036 -49.609507 -145.079462 19.353276 -15.223400 -38.419006 16.810302 -10.725330 4.276916 49.531652 -23.801266 13.150232 10.137573 80.756667 28.363094 -11.652124 19.306816 -19.963178 
0.034620 0.319278 0.950739 -78.475725 0.522623 103.629108 4.632109 -1.306575 13.809084 -6.488786 -22.339747 20.689364 -15.470708 6.165123 16.678573 0.000000 -0.000000 0.000000 -9.250039 2.965590 -56.786475 -2.445469 -20.950286 59.695180 3.567797 -3.001306 -19.453762 0.000000 -0.000000 0.000000 3.103517 -15.253325 24.813138 1.843766 2.858195 -6.433369 1.919426 -3.048358 -0.994507 -3.333316 3.670411 -27.075191 2.531489 -1.481718 -3.235063 -18.755298 5.571835 -5.207736 -61.871673 -19.591433 21.958536 173.342699 -47.489067 -145.452088 17.958773 -16.682386 -37.472701 15.016048 -12.066809 6.900172 51.087603 -25.230029 10.862805 19.177825 83.792870 38.284160 -11.074236 20.430949 -19.567925 
-0.110309 0.317982 0.960577 -81.049504 0.732940 103.260634 2.147602 -2.641791 18.605427 -6.153591 -25.434136 23.731015 -14.958191 5.233648 27.583850 0.000000 -0.000000 0.000000 -8.785957 4.711234 -55.817450 0.010851 -20.292458 41.204612 4.578953 -3.703451 -18.105247 0.000000 -0.000000 0.000000 3.250887 -15.437749 23.803090 1.458810 3.116919 -5.922555 2.087558 -2.717489 -1.864917 -4.033993 2.248803 -24.807547 3.105948 0.983100 -4.222779 -18.486707 7.404689 -4.334842 -60.260618 -17.187116 20.618525 173.315244 -50.856756 -144.981205 17.521070 -16.743434 -33.626647 14.355414 -12.035925 7.484095 54.172173 -25.109409 10.192580 -12.871193 85.915826 6.420553 -8.695584 20.880404 -18.121630 
-0.251849 0.317634 0.961391 -83.002585 0.421895 101.832125 -0.003898 -2.879635 16.766566 -9.117695 -19.699278 40.619649 -13.073786 5.945498 22.617860 0.000000 -0.000000 0.000000 -6.338888 5.040793 -52.744518 0.284485 -19.953873 32.759694 5.662404 -3.209087 -16.901836 0.000000 -0.000000 0.000000 2.832354 -13.332541 24.788743 1.911937 2.306324 -6.143606 1.991239 -2.928754 -1.771187 -4.343562 2.689189 -24.889742 1.899796 0.573647 -3.783748 -19.274712 7.418798 -3.259569 -59.411294 -14.025684 19.295804 171.429583 -58.736147 -143.877390 15.468243 -17.042133 -32.083644 16.823789 -11.610017 5.601586 55.822953 -22.414373 10.128545 -56.789129 84.321964 -35.964373 -5.543511 20.618584 -16.385815 
-0.390378 0.318971 0.954043 -84.177945 0.371604 99.770299 0.754929 -1.500239 10.911780 -10.421773 -12.643646 60.205630 -10.788567 5.793409 20.125408 0.000000 -0.000000 0.000000 -3.380031 5.147143 -49.738998 0.178574 -18.333128 38.801661 0.680062 -3.425938 -18.308627 0.000000 -0.000000 0.000000 2.515603 -10.965797 26.748314 2.720669 1.978342 -6.158437 1.723692 -3.382698 -1.707456 -4.613334 3.069012 -26.257207 0.372693 -0.589425 -1.984358 -20.948563 5.880280 -1.868658 -59.062700 -10.786740 17.233637 165.011479 -70.078876 -138.836122 13.788949 -16.612723 -30.614527 20.918841 -9.141918 3.051346 56.731972 -17.987419 10.148152 -65.194841 80.067147 -43.642236 -2.862973 20.096712 -15.243106 
-0.525945 0.323414 0.943751 -85.816336 1.358241 98.087335 3.009601 -1.245395 1.867319 -10.275515 -6.002071 77.892615 -6.872815 5.060491 14.457829 0.000000 -0.000000 0.000000 0.503929 8.444447 -45.044512 -0.051917 -14.862765 48.527929 -6.592039 -7.962905 -22.226253 0.000000 -0.000000 0.000000 2.224172 -8.672432 28.593295 3.841057 2.557175 -5.982251 1.652162 -3.026637 -1.509365 -4.520112 3.294244 -28.958401 -1.675185 -1.610869 1.127051 -23.231004 4.274025 -1.398233 -58.823531 -7.691558 15.531788 124.799869 -82.552320 -99.841289 12.500457 -15.827219 -26.534735 25.371930 -4.391484 1.329460 56.270165 -11.727712 12.119416 -65.846560 74.072518 -44.545126 -2.205604 19.303187 -16.123999 
-0.659473 0.329781 0.938961 -86.974187 1.806922 98.181965 5.384834 -3.599878 -11.700643 -9.095031 0.638139 90.562441 -3.478218 5.473794 7.017295 0.000000 -0.000000 0.000000 4.866828 11.888871 -36.401713 -0.535722 -11.972783 50.584056 -9.845845 -13.928554 -29.183101 0.000000 -0.000000 0.000000 1.500168 -5.794658 28.223084 5.202655 1.894535 -5.376599 1.973902 -2.184982 -1.895043 -3.920801 3.771542 -30.920186 -3.586644 -1.884015 3.268303 -25.307939 3.355713 -0.893680 -57.879924 -3.684119 13.896256 32.842627 -78.642271 -10.357231 11.555097 -14.757864 -23.047085 27.717718 0.897335 1.215904 54.762608 -4.450186 15.028103 -71.637566 71.338368 -49.476083 -2.845320 18.917968 -17.982049 
-0.794915 0.333471 0.942374 -87.976686 0.236886 99.277494 6.398988 -5.994830 -27.145986 -7.324226 6.024249 95.399251 -0.874125 5.943245 -0.208696 0.000000 -0.000000 0.000000 7.865879 10.606492 -24.361128 -0.592226 -7.667833 45.688846 -9.650839 -16.176149 -35.332549 0.000000 -0.000000 0.000000 0.172957 -1.716343 26.360456 5.509972 -0.229619 -5.836996 1.850799 -1.565677 -2.083521 -2.710910 3.513057 -31.098131 -3.735100 -2.093340 4.024189 -24.662213 4.214391 0.750528 -55.978527 2.894047 11.583225 6.198741 -77.685410 15.697634 10.578763 -14.737700 -22.580731 25.004641 3.522595 0.286964 56.919704 1.425649 16.779639 -98.697480 74.151715 -74.928398 -4.306481 19.579466 -22.963762 
-0.937239 0.333909 0.951319 -90.422214 -2.786618 100.691952 6.586445 -7.428550 -40.058182 -4.915674 11.471043 90.723435 0.225326 5.622580 -6.572468 0.000000 -0.000000 0.000000 7.154576 5.544309 -11.089430 -0.456278 -1.257617 36.948717 -6.678634 -12.927066 -35.683032 0.000000 -0.000000 0.000000 -1.725181 4.117804 23.066021 4.176985 -1.892145 -6.404298 0.845463 -0.633143 -1.650483 -1.617566 1.867919 -29.701518 -2.349215 -4.360911 3.637990 -20.797082 6.121479 2.615112 -53.402998 10.485058 11.009127 -51.464784 -81.495864 74.056257 11.064456 -16.006064 -26.820879 19.325184 3.325302 -1.797620 62.496250 4.657448 17.941026 -140.389679 69.559841 -115.484344 -6.036492 19.991766 -27.402391 
-1.086728 0.331612 0.965454 -93.165769 -5.782293 101.897502 6.758301 -8.670375 -47.756421 -3.451542 16.730493 77.668880 0.676818 5.371388 -10.888961 0.000000 -0.000000 0.000000 2.399873 1.210629 0.384675 -0.227003 3.356073 30.039973 1.105913 -5.520932 -24.703649 0.000000 -0.000000 0.000000 -3.615380 10.111523 19.402754 2.263583 -2.361036 -5.880698 -0.275229 0.534927 -1.631548 -1.336041 -0.997323 -26.985505 -0.629280 -7.167361 2.118047 -16.091628 7.735849 4.455123 -51.295360 16.401318 11.894477 -99.990059 -77.395692 122.006444 12.435928 -17.601708 -31.516936 14.021918 1.901702 -3.869533 65.530092 5.641970 18.512123 -158.779580 58.891090 -133.010119 -6.509483 20.519546 -27.967388 
-1.240339 0.326950 0.981871 -94.800824 -7.712020 102.676587 6.618439 -10.336449 -50.319859 -4.595869 19.137451 57.623120 1.392744 5.114983 -12.675659 0.000000 -0.000000 0.000000 -3.742169 -2.754715 8.551438 -0.598343 4.426398 26.556919 13.680696 0.483188 4.912492 0.000000 -0.000000 0.000000 -4.940643 14.194168 15.831378 0.860542 -2.598854 -4.241719 -0.784535 1.692767 -2.434027 -1.961433 -4.897613 -23.013563 1.565692 -7.506735 -0.776800 -12.497041 8.893504 7.094539 -51.695844 21.435447 11.082486 -115.005391 -74.034272 136.494139 13.207137 -18.833902 -31.861101 9.877726 0.505389 -4.572091 65.215202 6.074693 17.330511 -165.716726 50.556526 -140.032947 -4.282881 21.773296 -26.254675 
-1.393360 0.323332 0.992769 -94.646028 -8.179191 103.131262 5.942951 -12.212397 -49.416939 -6.839188 15.615546 34.692966 1.157280 5.625834 -12.143718 0.000000 -0.000000 0.000000 -5.816138 -4.330607 14.476932 -0.874966 8.287150 26.185450 16.814687 -0.634498 24.991704 0.000000 -0.000000 0.000000 -5.578994 15.572229 12.346825 0.340043 -2.697365 -3.140166 -0.700573 2.220095 -2.206170 -2.665834 -6.908463 -19.639584 2.756050 -7.089560 -3.137728 -9.898793 10.519280 9.499535 -54.343160 24.942188 8.895658 -121.724056 -72.605636 143.932238 13.866409 -18.451278 -32.232870 7.187784 -0.414020 -3.832221 63.910156 6.892922 15.980412 -167.036732 48.767046 -142.059741 -2.890515 22.300632 -25.518978 
-1.543926 0.323544 0.994871 -93.417517 -7.678226 101.880523 3.424095 -12.490754 -45.432071 -5.653887 11.484746 18.146560 -1.039486 6.455926 -10.542654 0.000000 -0.000000 0.000000 -3.308096 -3.933447 17.490212 -1.507978 11.452868 37.510216 11.550239 -1.280673 18.557932 0.000000 -0.000000 0.000000 -5.191819 14.664903 11.920709 0.011730 -2.170095 -2.589502 -0.465569 2.240143 -2.451751 -2.556099 -7.044991 -18.032242 2.984605 -6.873832 -3.243177 -9.821421 11.682953 9.802212 -56.877674 27.742822 6.930524 -130.379792 -72.197295 154.967151 13.253638 -18.304983 -33.095687 7.039847 0.233270 -3.523894 62.690943 4.882744 14.405528 -166.076353 53.843984 -141.732337 -1.952493 22.514522 -24.746275 
